<?xml version="1.0" encoding="UTF-8" standalone="no"?>
<!-- Created with Inkscape (http://www.inkscape.org/) -->
<svg
   xmlns:svg="http://www.w3.org/2000/svg"
   xmlns="http://www.w3.org/2000/svg"
   xmlns:xlink="http://www.w3.org/1999/xlink"
   version="1.0"
   width="300"
   height="300"
   viewBox="0 0 50.2638 50.2638"
   id="svg4376"
   xml:space="preserve"
   style="fill-rule:evenodd">
 <defs
   id="defs4378">
  <style
   type="text/css"
   id="style4380" />
  <linearGradient
   x1="24.6562"
   y1="43.711601"
   x2="24.6562"
   y2="8.9000902"
   id="id0"
   gradientUnits="userSpaceOnUse">
   <stop
   id="stop4383"
   style="stop-color:#667ab3;stop-opacity:1"
   offset="0" />
   <stop
   id="stop4385"
   style="stop-color:#ffffff;stop-opacity:1"
   offset="1" />
  </linearGradient>
  <linearGradient
   x1="24.6562"
   y1="40.7356"
   x2="24.6562"
   y2="8.9000902"
   id="id1"
   xlink:href="#id0"
   gradientUnits="userSpaceOnUse">
  </linearGradient>
  <linearGradient
   x1="24.6565"
   y1="40.735901"
   x2="24.6565"
   y2="8.8997803"
   id="id2"
   xlink:href="#id0"
   gradientUnits="userSpaceOnUse">
  </linearGradient>
 </defs>
 <g
   id="Layer_x0020_1">
  
  <rect
   width="49.769699"
   height="49.769699"
   x="0.24701799"
   y="0.24701799"
   id="rect4391"
   style="fill:none;stroke:#dededd;stroke-width:0.49434599" />
  <g
   id="_108272672">
   <g
   id="g4394">
    <g
   id="g4396">
     <polygon
   points="7.6321,17.0377 16.5598,8.89978 41.6802,8.89978 32.7522,17.0377 7.6321,17.0377 "
   id="_108683344"
   style="fill:url(#id1)" />
     <path
   d="M 16.5598,8.40233 L 16.924431,9.257272 L 7.996721,17.395202 L 7.26746,16.680216 L 16.19517,8.542286 L 16.559801,8.40233 L 16.5598,8.40233 z M 42.0448,9.257272 L 41.680169,9.397228 L 16.559769,9.397228 L 16.559769,8.40233 L 41.680169,8.40233 L 42.0448,9.257272 z M 32.75215,17.535162 L 32.387519,16.68022 L 41.315539,8.54229 L 42.0448,9.257276 L 33.11678,17.395206 L 32.752149,17.535162 L 32.75215,17.535162 z M 7.26745,16.68022 L 7.632081,16.540264 L 32.752181,16.540264 L 32.752181,17.535162 L 7.632081,17.535162 L 7.26745,16.68022 L 7.26745,16.68022 z"
   id="_1086833441"
   style="fill:#1f1a17;fill-rule:nonzero" />
    </g>
    <g
   id="g4400">
     <polygon
   points="32.7522,17.0377 41.6802,8.89978 41.6802,32.598 32.7522,40.7356 32.7522,17.0377 "
   id="_108660264"
   style="fill:url(#id2)" />
     <path
   d="M 42.2075,8.89978 L 42.04489,9.257273 L 33.11687,17.395203 L 32.387609,16.680217 L 41.315629,8.542287 L 42.2075,8.89978 L 42.2075,8.89978 z M 42.04489,32.95548 L 41.153019,32.597987 L 41.153019,8.899787 L 42.207499,8.899787 L 42.207499,32.597987 L 42.044889,32.95548 L 42.04489,32.95548 z M 32.225,40.73561 L 32.38761,40.378117 L 41.31563,32.240497 L 42.044891,32.955483 L 33.116871,41.093103 L 32.225,40.73561 L 32.225,40.73561 z M 32.38761,16.68021 L 33.279481,17.037703 L 33.279481,40.735603 L 32.225001,40.735603 L 32.225001,17.037703 L 32.387611,16.68021 L 32.38761,16.68021 z"
   id="_1086602641"
   style="fill:#1f1a17;fill-rule:nonzero" />
    </g>
    <g
   id="g4404">
     <polygon
   points="7.6321,17.0377 16.5598,8.89978 41.6802,8.89978 32.7522,17.0377 7.6321,17.0377 "
   id="polygon4406"
   style="fill:url(#id1)" />
     <path
   d="M 16.5598,8.40233 L 16.924431,9.257272 L 7.996721,17.395202 L 7.26746,16.680216 L 16.19517,8.542286 L 16.559801,8.40233 L 16.5598,8.40233 z M 42.0448,9.257272 L 41.680169,9.397228 L 16.559769,9.397228 L 16.559769,8.40233 L 41.680169,8.40233 L 42.0448,9.257272 z M 32.75215,17.535162 L 32.387519,16.68022 L 41.315539,8.54229 L 42.0448,9.257276 L 33.11678,17.395206 L 32.752149,17.535162 L 32.75215,17.535162 z M 7.26745,16.68022 L 7.632081,16.540264 L 32.752181,16.540264 L 32.752181,17.535162 L 7.632081,17.535162 L 7.26745,16.68022 L 7.26745,16.68022 z"
   id="1"
   style="fill:#1f1a17;fill-rule:nonzero" />
    </g>
    <g
   id="g4409">
     <polygon
   points="32.7522,17.0377 41.6802,8.89978 41.6802,32.598 32.7522,40.7356 32.7522,17.0377 "
   id="polygon4411"
   style="fill:url(#id2)" />
     <path
   d="M 42.2075,8.89978 L 42.04489,9.257273 L 33.11687,17.395203 L 32.387609,16.680217 L 41.315629,8.542287 L 42.2075,8.89978 L 42.2075,8.89978 z M 42.04489,32.95548 L 41.153019,32.597987 L 41.153019,8.899787 L 42.207499,8.899787 L 42.207499,32.597987 L 42.044889,32.95548 L 42.04489,32.95548 z M 32.225,40.73561 L 32.38761,40.378117 L 41.31563,32.240497 L 42.044891,32.955483 L 33.116871,41.093103 L 32.225,40.73561 L 32.225,40.73561 z M 32.38761,16.68021 L 33.279481,17.037703 L 33.279481,40.735603 L 32.225001,40.735603 L 32.225001,17.037703 L 32.387611,16.68021 L 32.38761,16.68021 z"
   id="path4413"
   style="fill:#1f1a17;fill-rule:nonzero" />
    </g>
   </g>
   <g
   id="g4415">
    <polygon
   points="7.6321,17.0377 32.7522,17.0377 32.7522,40.7356 7.6321,40.7356 7.6321,17.0377 "
   id="polygon4417"
   style="fill:url(#id0)" />
    <path
   d="M 33.2794,17.0377 L 32.75216,17.535149 L 7.63206,17.535149 L 7.63206,16.540251 L 32.75216,16.540251 L 33.2794,17.0377 z M 32.75216,16.540251 L 33.2794,16.540251 L 33.2794,17.0377 L 32.75216,16.540251 z M 32.75216,41.233051 L 32.22492,40.735602 L 32.22492,17.037702 L 33.2794,17.037702 L 33.2794,40.735602 L 32.75216,41.233051 z M 33.2794,40.735602 L 33.2794,41.233051 L 32.75216,41.233051 L 33.2794,40.735602 z M 7.1048,40.735602 L 7.63204,40.238153 L 32.75214,40.238153 L 32.75214,41.233051 L 7.63204,41.233051 L 7.1048,40.735602 L 7.1048,40.735602 z M 7.63204,41.233051 L 7.1048,41.233051 L 7.1048,40.735602 L 7.63204,41.233051 z M 7.63204,16.540251 L 8.15928,17.0377 L 8.15928,40.7356 L 7.1048,40.7356 L 7.1048,17.0377 L 7.63204,16.540251 z M 7.1048,17.0377 L 7.1048,16.540251 L 7.63204,16.540251 L 7.1048,17.0377 z"
   id="path4419"
   style="fill:#1f1a17;fill-rule:nonzero" />
   </g>
  </g>
 </g>
</svg>