<?xml version="1.0" encoding="UTF-8" standalone="no"?>
<!-- Created with Inkscape (http://www.inkscape.org/) -->
<svg
   xmlns:svg="http://www.w3.org/2000/svg"
   xmlns="http://www.w3.org/2000/svg"
   xmlns:xlink="http://www.w3.org/1999/xlink"
   version="1.0"
   width="300"
   height="300"
   viewBox="0 0 89.1782 89.1782"
   id="svg4531"
   xml:space="preserve"
   style="fill-rule:evenodd">
 <defs
   id="defs4533">
  <style
   type="text/css"
   id="style4535" />
  <linearGradient
   x1="45.909401"
   y1="77.814301"
   x2="45.909401"
   y2="16.052601"
   id="id0"
   gradientUnits="userSpaceOnUse">
   <stop
   id="stop4538"
   style="stop-color:#ef9a48;stop-opacity:1"
   offset="0" />
   <stop
   id="stop4540"
   style="stop-color:#ffffff;stop-opacity:1"
   offset="1" />
  </linearGradient>
  <linearGradient
   x1="45.909401"
   y1="72.535896"
   x2="45.909401"
   y2="16.0532"
   id="id1"
   xlink:href="#id0"
   gradientUnits="userSpaceOnUse">
  </linearGradient>
  <linearGradient
   x1="45.909901"
   y1="72.5364"
   x2="45.909901"
   y2="16.052601"
   id="id2"
   xlink:href="#id0"
   gradientUnits="userSpaceOnUse">
  </linearGradient>
 </defs>
 <g
   id="Layer_x0020_1">
  
  <rect
   width="88.301697"
   height="88.301697"
   x="0.43825999"
   y="0.43825999"
   id="rect4546"
   style="fill:none;stroke:#dededd;stroke-width:0.87707102" />
  <g
   id="_94258736">
   <g
   id="g4549">
    <g
   id="g4551">
     <polygon
   points="15.7052,30.491 31.5448,16.0526 76.1135,16.0526 60.2734,30.491 15.7052,30.491 "
   id="_108272288"
   style="fill:url(#id1)" />
     <path
   d="M 31.5448,15.1701 L 32.191729,16.68694 L 16.352129,31.12534 L 15.058269,29.85681 L 30.897869,15.41841 L 31.544798,15.170099 L 31.5448,15.1701 z M 76.7605,16.68694 L 76.113571,16.935251 L 31.544871,16.935251 L 31.544871,15.170101 L 76.113571,15.170101 L 76.7605,16.686941 L 76.7605,16.68694 z M 60.2734,31.37364 L 59.626471,29.8568 L 75.466571,15.4184 L 76.760431,16.68693 L 60.920331,31.12533 L 60.273402,31.373641 L 60.2734,31.37364 z M 15.0583,29.8568 L 15.705229,29.608489 L 60.273429,29.608489 L 60.273429,31.373639 L 15.705229,31.373639 L 15.0583,29.856799 L 15.0583,29.8568 z"
   id="_1082722881"
   style="fill:#1f1a17;fill-rule:nonzero" />
    </g>
    <g
   id="g4555">
     <polygon
   points="60.2734,30.491 76.1135,16.0526 76.1135,58.0981 60.2734,72.5359 60.2734,30.491 "
   id="_93109400"
   style="fill:url(#id2)" />
     <path
   d="M 77.049,16.0526 L 76.760497,16.686866 L 60.920397,31.125266 L 59.626537,29.856736 L 75.466637,15.418336 L 77.048997,16.052602 L 77.049,16.0526 z M 76.760497,58.7323 L 75.178137,58.098034 L 75.178137,16.052634 L 77.048997,16.052634 L 77.048997,58.098034 L 76.760494,58.7323 L 76.760497,58.7323 z M 59.337997,72.5358 L 59.6265,71.901534 L 75.4666,57.463734 L 76.76046,58.732264 L 60.92036,73.170064 L 59.338,72.535798 L 59.337997,72.5358 z M 59.6265,29.8567 L 61.20886,30.490966 L 61.20886,72.535866 L 59.338,72.535866 L 59.338,30.490966 L 59.626503,29.8567 L 59.6265,29.8567 z"
   id="_931094001"
   style="fill:#1f1a17;fill-rule:nonzero" />
    </g>
    <g
   id="g4559">
     <polygon
   points="15.7052,30.491 31.5448,16.0526 76.1135,16.0526 60.2734,30.491 15.7052,30.491 "
   id="polygon4561"
   style="fill:url(#id1)" />
     <path
   d="M 31.5448,15.1701 L 32.191729,16.68694 L 16.352129,31.12534 L 15.058269,29.85681 L 30.897869,15.41841 L 31.544798,15.170099 L 31.5448,15.1701 z M 76.7605,16.68694 L 76.113571,16.935251 L 31.544871,16.935251 L 31.544871,15.170101 L 76.113571,15.170101 L 76.7605,16.686941 L 76.7605,16.68694 z M 60.2734,31.37364 L 59.626471,29.8568 L 75.466571,15.4184 L 76.760431,16.68693 L 60.920331,31.12533 L 60.273402,31.373641 L 60.2734,31.37364 z M 15.0583,29.8568 L 15.705229,29.608489 L 60.273429,29.608489 L 60.273429,31.373639 L 15.705229,31.373639 L 15.0583,29.856799 L 15.0583,29.8568 z"
   id="1"
   style="fill:#1f1a17;fill-rule:nonzero" />
    </g>
    <g
   id="g4564">
     <polygon
   points="60.2734,30.491 76.1135,16.0526 76.1135,58.0981 60.2734,72.5359 60.2734,30.491 "
   id="polygon4566"
   style="fill:url(#id2)" />
     <path
   d="M 77.049,16.0526 L 76.760497,16.686866 L 60.920397,31.125266 L 59.626537,29.856736 L 75.466637,15.418336 L 77.048997,16.052602 L 77.049,16.0526 z M 76.760497,58.7323 L 75.178137,58.098034 L 75.178137,16.052634 L 77.048997,16.052634 L 77.048997,58.098034 L 76.760494,58.7323 L 76.760497,58.7323 z M 59.337997,72.5358 L 59.6265,71.901534 L 75.4666,57.463734 L 76.76046,58.732264 L 60.92036,73.170064 L 59.338,72.535798 L 59.337997,72.5358 z M 59.6265,29.8567 L 61.20886,30.490966 L 61.20886,72.535866 L 59.338,72.535866 L 59.338,30.490966 L 59.626503,29.8567 L 59.6265,29.8567 z"
   id="path4568"
   style="fill:#1f1a17;fill-rule:nonzero" />
    </g>
   </g>
   <g
   id="g4570">
    <polygon
   points="15.7052,30.491 60.2734,30.491 60.2734,72.5359 15.7052,72.5359 15.7052,30.491 "
   id="polygon4572"
   style="fill:url(#id0)" />
    <path
   d="M 61.2088,30.491 L 60.273368,31.373576 L 15.705168,31.373576 L 15.705168,29.608426 L 60.273368,29.608426 L 61.2088,30.491002 L 61.2088,30.491 z M 60.273368,29.608424 L 61.2088,29.608424 L 61.2088,30.491 L 60.273368,29.608424 z M 60.273368,73.418424 L 59.337936,72.535848 L 59.337936,30.490948 L 61.208796,30.490948 L 61.208796,72.535848 L 60.273364,73.418424 L 60.273368,73.418424 z M 61.2088,72.535848 L 61.2088,73.418424 L 60.273368,73.418424 L 61.2088,72.535848 z M 14.7698,72.535848 L 15.705232,71.653272 L 60.273432,71.653272 L 60.273432,73.418422 L 15.705232,73.418422 L 14.7698,72.535846 L 14.7698,72.535848 z M 15.705232,73.418424 L 14.7698,73.418424 L 14.7698,72.535848 L 15.705232,73.418424 z M 15.705232,29.608424 L 16.640664,30.491 L 16.640664,72.5359 L 14.769804,72.5359 L 14.769804,30.491 L 15.705236,29.608424 L 15.705232,29.608424 z M 14.7698,30.491 L 14.7698,29.608424 L 15.705232,29.608424 L 14.7698,30.491 z"
   id="path4574"
   style="fill:#1f1a17;fill-rule:nonzero" />
   </g>
  </g>
 </g>
</svg>