<?xml version="1.0" encoding="UTF-8" standalone="no"?>
<!-- Created with Inkscape (http://www.inkscape.org/) -->
<svg
   xmlns:svg="http://www.w3.org/2000/svg"
   xmlns="http://www.w3.org/2000/svg"
   version="1.0"
   width="300"
   height="300"
   viewBox="0 0 394.951 394.951"
   id="svg4914"
   xml:space="preserve"
   style="fill-rule:evenodd">
 <defs
   id="defs4916">
  <style
   type="text/css"
   id="style4918" />
  <linearGradient
   x1="197.478"
   y1="369.172"
   x2="197.478"
   y2="25.7787"
   id="id0"
   gradientUnits="userSpaceOnUse">
   <stop
   id="stop4921"
   style="stop-color:#667ab3;stop-opacity:1"
   offset="0" />
   <stop
   id="stop4923"
   style="stop-color:#ffffff;stop-opacity:1"
   offset="1" />
  </linearGradient>
 </defs>
 <g
   id="Layer_x0020_1">
  
  <rect
   width="391.069"
   height="391.069"
   x="1.94096"
   y="1.94096"
   id="rect4927"
   style="fill:none;stroke:#dededd;stroke-width:3.88436007" />
  <path
   d="M 208.153,106.111 C 199.22849,106.111 193.7421,108.42503 191.6914,112.92142 C 190.10401,116.29127 188.65073,122.83591 187.32912,132.68702 C 185.93924,142.47228 185.27843,151.39682 185.27843,159.39472 C 185.27843,164.1569 186.79999,167.46091 189.90649,169.31165 C 193.013,171.09655 198.831,172.02314 207.36049,172.02314 C 213.04438,172.02314 217.20915,170.96488 219.92059,168.91663 C 222.63208,166.80011 224.54865,163.36198 225.54108,158.40473 C 228.51592,144.38883 234.59726,137.31513 243.78758,137.31513 C 259.52008,137.31513 267.38878,156.15653 267.38878,193.90533 C 267.38878,217.77233 263.95065,235.35553 257.14018,246.59403 C 252.97541,253.40445 247.28908,256.84263 240.08368,256.84263 C 232.48078,256.84263 228.05268,251.75127 226.92858,241.50513 C 226.26778,234.96049 225.47286,230.26663 224.48287,227.55513 C 223.55628,224.84608 221.70554,222.26626 218.99405,219.82056 C 214.69761,215.8533 208.55045,213.80505 200.35255,213.80505 C 194.60039,213.80505 190.63313,214.86331 188.58485,216.91156 C 186.53416,219.02808 185.61001,222.92707 185.87336,228.74506 C 185.87336,229.80332 185.80752,235.75299 185.67585,246.72816 C 185.67585,269.07356 187.98988,282.69196 192.61795,287.64926 C 194.2029,289.56583 195.7903,290.82161 197.37769,291.41657 C 198.96264,292.01154 203.19569,292.80645 210.06949,293.79888 C 213.44178,294.32557 216.28495,296.11047 218.59898,299.01947 C 220.91301,301.99431 222.10295,305.43244 222.10295,309.33387 C 222.10295,319.2508 216.28495,325.66377 204.64895,328.50447 C 187.85815,332.47173 164.32285,334.52242 133.97705,334.52242 C 107.33525,334.52242 89.02285,332.93503 78.97425,329.82852 C 74.41202,328.43864 70.77638,325.86126 67.93325,322.09395 C 65.09009,318.3242 63.63681,314.22527 63.63681,309.73135 C 63.63681,304.04502 65.68506,299.41695 69.84983,295.97885 C 70.842255,295.18637 74.41206,293.53314 80.49343,291.08744 C 87.70131,288.24428 92.06363,281.69964 93.45103,271.38524 C 95.76506,255.45284 96.955,219.22564 96.955,162.70124 C 96.955,138.30754 96.096687,122.50684 94.44346,115.23554 C 92.79023,108.02766 88.6913,103.00454 82.21246,100.16144 C 75.80193,97.31828 71.56886,94.80674 69.52066,92.69021 C 67.53581,90.57613 66.54582,87.46718 66.54582,83.50236 C 66.54582,77.81603 69.32315,73.05626 74.87536,69.22066 C 80.42757,65.45335 87.30386,63.53677 95.43586,63.53677 C 100.59305,63.53677 108.12766,63.934228 118.04466,64.7267 C 139.13426,66.37993 164.32286,67.23824 193.60796,67.23824 C 240.48116,67.23824 272.01436,65.91663 288.34426,63.33925 C 290.52662,63.073465 292.17985,62.941792 293.36978,62.941792 C 297.86373,62.941792 302.22845,65.519172 306.32738,70.676362 C 317.69758,85.155562 323.38388,101.15376 323.38388,118.73946 C 323.38388,126.73738 321.46487,133.15036 317.76339,137.91006 C 313.99608,142.6698 309.10223,145.04967 303.02089,145.04967 C 298.5245,145.04967 295.08881,144.19136 292.77479,142.34062 C 290.46076,140.55572 284.51109,134.20859 274.92329,123.36502 C 269.17357,116.68871 262.16559,112.26062 253.96779,110.20992 C 245.70409,108.16167 230.49829,106.77179 208.15289,106.11099 L 208.153,106.111 z"
   id="path4929"
   style="fill:url(#id0);fill-rule:nonzero" />
  <path
   d="M 208.153,106.111 C 199.22849,106.111 193.7421,108.42503 191.6914,112.92142 C 190.10401,116.29127 188.65073,122.83591 187.32912,132.68702 C 185.93924,142.47228 185.27843,151.39682 185.27843,159.39472 C 185.27843,164.1569 186.79999,167.46091 189.90649,169.31165 C 193.013,171.09655 198.831,172.02314 207.36049,172.02314 C 213.04438,172.02314 217.20915,170.96488 219.92059,168.91663 C 222.63208,166.80011 224.54865,163.36198 225.54108,158.40473 C 228.51592,144.38883 234.59726,137.31513 243.78758,137.31513 C 259.52008,137.31513 267.38878,156.15653 267.38878,193.90533 C 267.38878,217.77233 263.95065,235.35553 257.14018,246.59403 C 252.97541,253.40445 247.28908,256.84263 240.08368,256.84263 C 232.48078,256.84263 228.05268,251.75127 226.92858,241.50513 C 226.26778,234.96049 225.47286,230.26663 224.48287,227.55513 C 223.55628,224.84608 221.70554,222.26626 218.99405,219.82056 C 214.69761,215.8533 208.55045,213.80505 200.35255,213.80505 C 194.60039,213.80505 190.63313,214.86331 188.58485,216.91156 C 186.53416,219.02808 185.61001,222.92707 185.87336,228.74506 C 185.87336,229.80332 185.80752,235.75299 185.67585,246.72816 C 185.67585,269.07356 187.98988,282.69196 192.61795,287.64926 C 194.2029,289.56583 195.7903,290.82161 197.37769,291.41657 C 198.96264,292.01154 203.19569,292.80645 210.06949,293.79888 C 213.44178,294.32557 216.28495,296.11047 218.59898,299.01947 C 220.91301,301.99431 222.10295,305.43244 222.10295,309.33387 C 222.10295,319.2508 216.28495,325.66377 204.64895,328.50447 C 187.85815,332.47173 164.32285,334.52242 133.97705,334.52242 C 107.33525,334.52242 89.02285,332.93503 78.97425,329.82852 C 74.41202,328.43864 70.77638,325.86126 67.93325,322.09395 C 65.09009,318.3242 63.63681,314.22527 63.63681,309.73135 C 63.63681,304.04502 65.68506,299.41695 69.84983,295.97885 C 70.842255,295.18637 74.41206,293.53314 80.49343,291.08744 C 87.70131,288.24428 92.06363,281.69964 93.45103,271.38524 C 95.76506,255.45284 96.955,219.22564 96.955,162.70124 C 96.955,138.30754 96.096687,122.50684 94.44346,115.23554 C 92.79023,108.02766 88.6913,103.00454 82.21246,100.16144 C 75.80193,97.31828 71.56886,94.80674 69.52066,92.69021 C 67.53581,90.57613 66.54582,87.46718 66.54582,83.50236 C 66.54582,77.81603 69.32315,73.05626 74.87536,69.22066 C 80.42757,65.45335 87.30386,63.53677 95.43586,63.53677 C 100.59305,63.53677 108.12766,63.934228 118.04466,64.7267 C 139.13426,66.37993 164.32286,67.23824 193.60796,67.23824 C 240.48116,67.23824 272.01436,65.91663 288.34426,63.33925 C 290.52662,63.073465 292.17985,62.941792 293.36978,62.941792 C 297.86373,62.941792 302.22845,65.519172 306.32738,70.676362 C 317.69758,85.155562 323.38388,101.15376 323.38388,118.73946 C 323.38388,126.73738 321.46487,133.15036 317.76339,137.91006 C 313.99608,142.6698 309.10223,145.04967 303.02089,145.04967 C 298.5245,145.04967 295.08881,144.19136 292.77479,142.34062 C 290.46076,140.55572 284.51109,134.20859 274.92329,123.36502 C 269.17357,116.68871 262.16559,112.26062 253.96779,110.20992 C 245.70409,108.16167 230.49829,106.77179 208.15289,106.11099 L 208.153,106.111 z"
   id="1"
   style="fill:none;fill-rule:nonzero;stroke:#1f1a17;stroke-width:7.46147013" />
 </g>
</svg>