<?xml version="1.0" encoding="UTF-8" standalone="no"?>
<!-- Created with Inkscape (http://www.inkscape.org/) -->
<svg
   xmlns:svg="http://www.w3.org/2000/svg"
   xmlns="http://www.w3.org/2000/svg"
   version="1.0"
   width="300"
   height="300"
   viewBox="0 0 162.613 162.613"
   id="svg5015"
   xml:space="preserve"
   style="fill-rule:evenodd">
 <defs
   id="defs5017">
  <style
   type="text/css"
   id="style5019" />
  <linearGradient
   x1="81.307404"
   y1="152"
   x2="81.307404"
   y2="10.6148"
   id="id0"
   gradientUnits="userSpaceOnUse">
   <stop
   id="stop5022"
   style="stop-color:#ef9a48;stop-opacity:1"
   offset="0" />
   <stop
   id="stop5024"
   style="stop-color:#ffffff;stop-opacity:1"
   offset="1" />
  </linearGradient>
 </defs>
 <g
   id="Layer_x0020_1">
  
  <rect
   width="161.01401"
   height="161.01401"
   x="0.79914898"
   y="0.79914898"
   id="rect5028"
   style="fill:none;stroke:#dededd;stroke-width:1.59930003" />
  <path
   d="M 85.7027,43.6891 C 82.02822,43.6891 79.76932,44.641854 78.925,46.49315 C 78.271425,47.88062 77.67307,50.57523 77.12892,54.63121 C 76.556665,58.66008 76.284593,62.33456 76.284593,65.62751 C 76.284593,67.58824 76.911061,68.9486 78.190103,69.7106 C 79.469143,70.445495 81.864583,70.827 85.376413,70.827 C 87.716633,70.827 89.431393,70.391283 90.547793,69.54796 C 91.664193,68.676527 92.453303,67.26095 92.861913,65.21991 C 94.086743,59.44917 96.590603,56.5367 100.37451,56.5367 C 106.85203,56.5367 110.0918,64.29426 110.0918,79.8365 C 110.0918,89.66322 108.67622,96.9027 105.87217,101.53 C 104.15741,104.33405 101.81619,105.74963 98.849503,105.74963 C 95.719173,105.74963 93.895983,103.65337 93.433163,99.43475 C 93.161091,96.74013 92.833802,94.80752 92.426193,93.69112 C 92.04469,92.57573 91.282683,91.51354 90.166293,90.50657 C 88.397323,88.87313 85.866353,88.02981 82.491053,88.02981 C 80.122723,88.02981 78.489283,88.465527 77.645963,89.30885 C 76.801636,90.180283 76.421133,91.78561 76.529563,94.18105 C 76.529563,94.616767 76.502456,97.06642 76.448243,101.58522 C 76.448243,110.78547 77.400997,116.39252 79.306503,118.43362 C 79.959074,119.22273 80.612653,119.73977 81.266223,119.98473 C 81.918794,120.22969 83.661663,120.55698 86.491813,120.96559 C 87.880283,121.18245 89.050893,121.91734 90.003653,123.11506 C 90.956407,124.33989 91.446333,125.75546 91.446333,127.36179 C 91.446333,131.44488 89.050893,134.08528 84.260023,135.25489 C 77.346783,136.88833 67.656623,137.73265 55.162423,137.73265 C 44.193223,137.73265 36.653523,137.07908 32.516223,135.80004 C 30.637823,135.22779 29.140923,134.1666 27.970313,132.61549 C 26.799703,131.06337 26.201343,129.37573 26.201343,127.52544 C 26.201343,125.18422 27.044666,123.27871 28.759423,121.86313 C 29.168033,121.53685 30.637823,120.85616 33.141693,119.8492 C 36.109383,118.67859 37.905463,115.98397 38.476713,111.73724 C 39.429467,105.17739 39.919393,90.261645 39.919393,66.988945 C 39.919393,56.945345 39.566001,50.439745 38.885323,47.445945 C 38.204641,44.478255 36.516993,42.410105 33.849483,41.239495 C 31.210083,40.068885 29.467213,39.034805 28.623893,38.163375 C 27.806673,37.292946 27.399063,36.012905 27.399063,34.380475 C 27.399063,32.039255 28.542573,30.079525 30.828573,28.500305 C 33.114583,26.949195 35.945733,26.160085 39.293923,26.160085 C 41.417293,26.160085 44.519513,26.32373 48.602603,26.650015 C 57.285813,27.330697 67.656703,27.684085 79.714203,27.684085 C 99.013203,27.684085 111.9964,27.139941 118.7199,26.078765 C 119.61844,25.969334 120.29912,25.91512 120.78905,25.91512 C 122.63934,25.91512 124.43642,26.9763 126.12407,29.09967 C 130.80551,35.06116 133.14674,41.64807 133.14674,48.88867 C 133.14674,52.18164 132.35663,54.82205 130.83262,56.78177 C 129.28151,58.74149 127.26657,59.72135 124.7627,59.72135 C 122.91141,59.72135 121.49683,59.367958 120.54408,58.60596 C 119.59133,57.871065 117.14167,55.25777 113.19412,50.79318 C 110.82679,48.04435 107.94142,46.22117 104.56613,45.37684 C 101.16372,44.533517 94.903063,43.96126 85.702833,43.68919 L 85.7027,43.6891 z"
   id="path5030"
   style="fill:url(#id0);fill-rule:nonzero" />
  <path
   d="M 85.7027,43.6891 C 82.02822,43.6891 79.76932,44.641854 78.925,46.49315 C 78.271425,47.88062 77.67307,50.57523 77.12892,54.63121 C 76.556665,58.66008 76.284593,62.33456 76.284593,65.62751 C 76.284593,67.58824 76.911061,68.9486 78.190103,69.7106 C 79.469143,70.445495 81.864583,70.827 85.376413,70.827 C 87.716633,70.827 89.431393,70.391283 90.547793,69.54796 C 91.664193,68.676527 92.453303,67.26095 92.861913,65.21991 C 94.086743,59.44917 96.590603,56.5367 100.37451,56.5367 C 106.85203,56.5367 110.0918,64.29426 110.0918,79.8365 C 110.0918,89.66322 108.67622,96.9027 105.87217,101.53 C 104.15741,104.33405 101.81619,105.74963 98.849503,105.74963 C 95.719173,105.74963 93.895983,103.65337 93.433163,99.43475 C 93.161091,96.74013 92.833802,94.80752 92.426193,93.69112 C 92.04469,92.57573 91.282683,91.51354 90.166293,90.50657 C 88.397323,88.87313 85.866353,88.02981 82.491053,88.02981 C 80.122723,88.02981 78.489283,88.465527 77.645963,89.30885 C 76.801636,90.180283 76.421133,91.78561 76.529563,94.18105 C 76.529563,94.616767 76.502456,97.06642 76.448243,101.58522 C 76.448243,110.78547 77.400997,116.39252 79.306503,118.43362 C 79.959074,119.22273 80.612653,119.73977 81.266223,119.98473 C 81.918794,120.22969 83.661663,120.55698 86.491813,120.96559 C 87.880283,121.18245 89.050893,121.91734 90.003653,123.11506 C 90.956407,124.33989 91.446333,125.75546 91.446333,127.36179 C 91.446333,131.44488 89.050893,134.08528 84.260023,135.25489 C 77.346783,136.88833 67.656623,137.73265 55.162423,137.73265 C 44.193223,137.73265 36.653523,137.07908 32.516223,135.80004 C 30.637823,135.22779 29.140923,134.1666 27.970313,132.61549 C 26.799703,131.06337 26.201343,129.37573 26.201343,127.52544 C 26.201343,125.18422 27.044666,123.27871 28.759423,121.86313 C 29.168033,121.53685 30.637823,120.85616 33.141693,119.8492 C 36.109383,118.67859 37.905463,115.98397 38.476713,111.73724 C 39.429467,105.17739 39.919393,90.261645 39.919393,66.988945 C 39.919393,56.945345 39.566001,50.439745 38.885323,47.445945 C 38.204641,44.478255 36.516993,42.410105 33.849483,41.239495 C 31.210083,40.068885 29.467213,39.034805 28.623893,38.163375 C 27.806673,37.292946 27.399063,36.012905 27.399063,34.380475 C 27.399063,32.039255 28.542573,30.079525 30.828573,28.500305 C 33.114583,26.949195 35.945733,26.160085 39.293923,26.160085 C 41.417293,26.160085 44.519513,26.32373 48.602603,26.650015 C 57.285813,27.330697 67.656703,27.684085 79.714203,27.684085 C 99.013203,27.684085 111.9964,27.139941 118.7199,26.078765 C 119.61844,25.969334 120.29912,25.91512 120.78905,25.91512 C 122.63934,25.91512 124.43642,26.9763 126.12407,29.09967 C 130.80551,35.06116 133.14674,41.64807 133.14674,48.88867 C 133.14674,52.18164 132.35663,54.82205 130.83262,56.78177 C 129.28151,58.74149 127.26657,59.72135 124.7627,59.72135 C 122.91141,59.72135 121.49683,59.367958 120.54408,58.60596 C 119.59133,57.871065 117.14167,55.25777 113.19412,50.79318 C 110.82679,48.04435 107.94142,46.22117 104.56613,45.37684 C 101.16372,44.533517 94.903063,43.96126 85.702833,43.68919 L 85.7027,43.6891 z"
   id="1"
   style="fill:none;fill-rule:nonzero;stroke:#1f1a17;stroke-width:3.07209992" />
 </g>
</svg>